<?xml version="1.0" encoding="utf-8"?>
<!-- Generator: Adobe Illustrator 22.0.1, SVG Export Plug-In . SVG Version: 6.00 Build 0)  -->
<svg version="1.2" baseProfile="tiny" id="Layer_1" xmlns="http://www.w3.org/2000/svg" xmlns:xlink="http://www.w3.org/1999/xlink"
	 x="0px" y="0px" viewBox="0 0 60 100" xml:space="preserve">
<g>
	<path fill="#E3DCD9" d="M9.9,31.4l7.8,7.8c-2.9,2.8-4.6,6.7-4.6,10.8c0,4,1.6,7.8,4.4,10.6c0.1,0.1,0.1,0.1,0.2,0.2l-7.8,7.8
		c-6.6,6.6-6.6,17.3,0,23.8l1.3,1.3L55,50L11.3,6.3L9.9,7.6C3.4,14.1,3.4,24.8,9.9,31.4z M14,50c0-3.8,1.6-7.5,4.3-10.2l1.4,1.4
		C17.3,43.5,16,46.7,16,50c0,3.3,1.3,6.3,3.6,8.6c0.1,0.1,0.1,0.1,0.2,0.2l0,0l0.4,0.3c0.3,0.3,0.6,0.5,0.9,0.7c0.5,0.4,1,0.7,1.6,1
		c0,0,0,0,0,0l0.3,0.2l0,0c1.7,0.8,3.5,1.2,5.4,1.2c3.3,0,6.5-1.4,8.8-3.7l1.4,1.4c-2.7,2.7-6.3,4.3-10.2,4.3c-2.6,0-5.1-0.7-7.3-2
		c-0.8-0.5-1.5-1-2.2-1.7c-0.2-0.2-0.3-0.3-0.5-0.5C15.5,57.3,14,53.8,14,50z M28.5,50l-8.2,8.2c-0.1-0.1-0.1-0.1-0.2-0.2
		c-2.1-2.1-3.3-5-3.3-8c0-3.1,1.3-6,3.5-8.2L28.5,50z M12.6,28.8c-2.3-2.3-3.7-5.4-3.8-8.6c-0.2-3.1,0.8-6.1,2.6-8.5l27.8,27.8
		L39,39.5c-0.1-0.1-0.1-0.1-0.2-0.2c-2.8-2.8-6.6-4.4-10.6-4.4c-2.6,0-5.2,0.7-7.4,2L12.6,28.8z M41.8,57.9l-0.5-0.5
		c1.3-2.3,2-4.8,2-7.4c0-2.6-0.7-5.2-2-7.5l0.5-0.5l7.9,7.9L41.8,57.9z M20.7,63.1c2.3,1.3,4.8,2,7.5,2c4.1,0,8-1.7,10.8-4.6
		l0.1,0.1L11.3,88.4c-1.8-2.4-2.7-5.4-2.6-8.5c0.2-3.3,1.5-6.3,3.8-8.6L20.7,63.1z M39.7,60l-0.1-0.1l-2.7-2.7L31.8,52l1.4-1.4
		l4.9,4.9l2.7,2.7l0.3,0.3L39.7,60z M28.2,61.3c-1.6,0-3.2-0.3-4.7-1l7.7-7.7l5.2,5.2C34.2,60,31.3,61.3,28.2,61.3z M38.5,45.3
		c0.7,1.5,1,3.1,1,4.7c0,1.6-0.3,3.2-1,4.7L33.8,50L38.5,45.3z M40.8,41.8C40.8,41.7,40.8,41.7,40.8,41.8c-0.1-0.2-0.2-0.3-0.2-0.3
		c0,0,0,0-0.1-0.1c-0.1-0.1-0.2-0.2-0.3-0.4c0,0,0-0.1-0.1-0.1c-0.1-0.1-0.1-0.2-0.2-0.3c0,0-0.1-0.1-0.1-0.1
		c-0.1-0.1-0.2-0.2-0.2-0.3c0,0,0,0,0-0.1l0.1-0.1l1.4,1.4L40.8,41.8z M28.2,35.8c3.8,0,7.3,1.5,10,4.1c0.2,0.2,0.3,0.3,0.5,0.5
		c0.2,0.3,0.5,0.5,0.7,0.8c0.4,0.5,0.7,0.9,1,1.4l0,0c1.3,2.2,2,4.7,2,7.3c0,2.4-0.6,4.7-1.7,6.8l-1.4-1.4c0.8-1.7,1.2-3.5,1.2-5.3
		c0-1.9-0.4-3.7-1.2-5.4l0,0L39,44.4c-0.1-0.1-0.1-0.2-0.2-0.3c-0.4-0.8-0.9-1.5-1.5-2.1L37,41.5l0,0c-0.1-0.1-0.1-0.1-0.2-0.2
		c-2.3-2.3-5.4-3.6-8.6-3.6c-1.8,0-3.7,0.4-5.3,1.2l-1.4-1.4C23.5,36.4,25.8,35.8,28.2,35.8z M28.2,38.7c3,0,5.9,1.2,8,3.3
		c0.1,0.1,0.1,0.1,0.2,0.2l-5.2,5.2l-7.6-7.6C25,39,26.6,38.7,28.2,38.7z M31.8,48l5.1-5.1c0,0,0,0,0,0.1c0.1,0.1,0.1,0.2,0.2,0.3
		c0,0,0,0.1,0.1,0.1c0.1,0.1,0.2,0.2,0.3,0.4c0,0,0,0.1,0.1,0.1c0.1,0.1,0.1,0.2,0.2,0.3c0,0,0,0.1,0.1,0.1c0.1,0.1,0.2,0.3,0.2,0.4
		c0,0,0,0,0,0l-4.9,4.9L30.5,52l-7.9,7.9c0,0,0,0,0,0c-0.1-0.1-0.3-0.1-0.4-0.2c0,0-0.1,0-0.1-0.1c-0.1-0.1-0.2-0.1-0.3-0.2
		c0,0-0.1,0-0.1-0.1c-0.1-0.1-0.2-0.2-0.4-0.3c0,0-0.1,0-0.1-0.1c-0.1-0.1-0.2-0.1-0.3-0.2c0,0,0,0-0.1,0l8.1-8.1L31.8,48z
		 M11.3,7.5L53.7,50L11.3,92.5l-0.7-0.7c-6.2-6.2-6.2-16.3,0-22.6l7.8-7.8c0,0,0,0,0.1,0c0.1,0.1,0.2,0.2,0.3,0.2
		c0,0,0.1,0.1,0.1,0.1c0.1,0.1,0.2,0.1,0.3,0.2c0,0,0.1,0,0.1,0.1c0.1,0.1,0.2,0.2,0.4,0.3c0,0,0,0,0.1,0.1c0.1,0.1,0.2,0.1,0.3,0.2
		c0,0,0,0,0.1,0l-8,8c-2.5,2.5-3.9,5.7-4.1,9.2c-0.2,3.5,0.9,6.8,3.1,9.5l0.3,0.4l28.5-28.5l2.6-2.6L51,50l-8.6-8.6l-2.6-2.6
		L11.3,10.3L11,10.7c-2.2,2.7-3.3,6-3.1,9.5c0.2,3.5,1.6,6.8,4.1,9.2l8,8l2.7,2.7l7.9,7.9l-1.4,1.4L21,41.2l-2.7-2.7l-7.8-7.8
		c-6.2-6.2-6.2-16.3,0-22.6L11.3,7.5z"/>
</g>
</svg>
