<?xml version="1.0" encoding="utf-8"?>
<!-- Generator: Adobe Illustrator 22.0.1, SVG Export Plug-In . SVG Version: 6.00 Build 0)  -->
<svg version="1.1" id="Layer_1" xmlns="http://www.w3.org/2000/svg" xmlns:xlink="http://www.w3.org/1999/xlink" x="0px" y="0px"
	 viewBox="0 0 15 184" enable-background="new 0 0 15 184" xml:space="preserve">
<g>
	<path fill="#E3DCD9" d="M7.6,142.9c2.1,0,4.2,0,6.3,0c0.2,0,0.4,0,0.6,0c0.4,0.1,0.6,0.5,0.3,0.8c-0.3,0.4-0.7,0.7-1.1,1.1
		c-2.5,2.1-5,4.2-7.4,6.3c-0.4,0.3-0.8,0.6-1.1,0.9c-0.1,0.1-0.2,0.2-0.2,0.3c0.1,0,0.2,0.1,0.3,0.1c0.9,0,1.8,0,2.6,0c2,0,4,0,6,0
		c0.8,0,0.9,0.1,0.9,0.9c0,1.3,0,1.3-1.3,1.3c-4.1,0-8.2,0-12.2,0c-0.4,0-0.9,0.1-1.1-0.4c-0.2-0.5,0.3-0.7,0.6-1
		c3-2.6,6.1-5.2,9.1-7.7c0.1-0.1,0.2-0.1,0.2-0.2c0,0,0.1-0.1,0.1-0.2c-0.1,0-0.2-0.1-0.2-0.1c-0.8,0-1.5,0-2.3,0
		c-2.2,0-4.4,0-6.5,0c-0.8,0-0.8-0.1-0.8-0.9c0-1.3-0.1-1.4,1.3-1.4C3.6,142.9,5.6,142.9,7.6,142.9z"/>
	<path fill="#E3DCD9" d="M7.6,0.1c2.1,0,4.2,0,6.3,0c0.2,0,0.4,0,0.6,0c0.4,0.1,0.5,0.5,0.3,0.8c-0.3,0.4-0.7,0.7-1.1,1.1
		C10.9,4.4,8,6.9,5.1,9.3C5,9.4,5,9.5,4.9,9.6c0.1,0,0.3,0.1,0.4,0.1c2.8,0,5.6,0,8.4,0c1,0,1,0,1,1c0,1.2,0,1.2-1.2,1.2
		c-4.1,0-8.2,0-12.2,0c-0.1,0-0.3,0-0.4,0c-0.3-0.1-0.7-0.2-0.8-0.4c-0.1-0.2,0.1-0.6,0.3-0.8c0.9-0.8,1.9-1.6,2.8-2.4
		c2.2-1.9,4.4-3.7,6.6-5.6c0.1-0.1,0.2-0.2,0.3-0.3c-0.1,0-0.3-0.1-0.4-0.1c-2.8,0-5.6,0-8.4,0c-1,0-1,0-1-1c0-1.2,0-1.2,1.2-1.2
		C3.6,0.1,5.6,0.1,7.6,0.1z"/>
	<path fill="#E3DCD9" d="M7.6,32.7c2.1,0,4.1,0,6.2,0c0.2,0,0.3,0,0.5,0c0.2,0.1,0.6,0.1,0.6,0.3c0.1,0.2-0.1,0.5-0.2,0.7
		c-0.3,0.4-0.7,0.7-1,1c-2.9,2.4-5.7,4.8-8.6,7.3C5,42,4.9,42.2,4.8,42.3c0.1,0,0.3,0.1,0.4,0.1c2.9,0,5.8,0,8.6,0
		c0.8,0,0.9,0.1,0.9,0.9c0,1.3,0,1.3-1.3,1.3c-4.1,0-8.3,0-12.4,0c-0.4,0-0.8,0.1-1-0.4c-0.2-0.5,0.3-0.7,0.6-1
		c3.1-2.6,6.2-5.3,9.3-7.9c0.1-0.1,0.1-0.2,0.2-0.3c-0.1,0-0.2-0.1-0.3-0.1c-2.9,0-5.8,0-8.6,0c-0.9,0-0.9,0-0.9-0.9
		c0-1.4-0.1-1.3,1.3-1.3C3.6,32.7,5.6,32.7,7.6,32.7z"/>
	<path fill="#E3DCD9" d="M7.4,139.4c-2.1,0-4.2,0-6.3,0c-0.2,0-0.4,0-0.6,0c-0.5-0.1-0.6-0.4-0.4-0.8c0.1-0.2,0.3-0.4,0.5-0.5
		c3.1-2.7,6.3-5.3,9.4-8c0.1-0.1,0.1-0.1,0.2-0.2c-0.1,0-0.2-0.1-0.3-0.1c-2.9,0-5.8,0-8.6,0c-0.2,0-0.4,0-0.5,0
		c-0.3,0-0.5-0.2-0.5-0.5c0,0,0-0.1,0-0.1c0-1.8-0.2-1.6,1.5-1.6c4.1,0,8.1,0,12.2,0c0.4,0,0.8-0.1,1,0.4c0.1,0.4-0.2,0.7-0.5,0.9
		c-1.5,1.3-3,2.5-4.4,3.8c-1.7,1.4-3.4,2.9-5.1,4.3c-0.1,0.1-0.1,0.1-0.2,0.2c0.1,0,0.3,0.1,0.4,0.1c2.8,0,5.6,0,8.3,0
		c0.1,0,0.2,0,0.4,0c0.8,0,0.9,0.1,0.9,0.9c0,1.3,0,1.3-1.3,1.3C11.5,139.4,9.5,139.4,7.4,139.4z"/>
	<path fill="#E3DCD9" d="M7.4,183.9c-2.1,0-4.2,0-6.3,0c-0.2,0-0.4,0-0.6,0c-0.4-0.1-0.5-0.4-0.3-0.8c0.2-0.2,0.4-0.5,0.6-0.6
		c3.1-2.6,6.2-5.2,9.2-7.8c0.1-0.1,0.2-0.2,0.3-0.3c-0.1,0-0.3-0.1-0.4-0.1c-2.9,0-5.8,0-8.7,0c-0.8,0-0.8,0-0.8-0.8
		c0-1.4-0.1-1.3,1.3-1.3c4.1,0,8.2,0,12.3,0c0.4,0,0.8-0.1,1,0.4c0.2,0.4-0.2,0.7-0.5,0.9c-1.4,1.3-2.9,2.5-4.4,3.7
		c-1.5,1.3-3.1,2.6-4.6,3.9c-0.2,0.2-0.4,0.4-0.6,0.6c0.3,0,0.6,0.1,0.9,0.1c2.7,0,5.4,0,8.1,0c0.8,0,0.9,0.1,0.9,0.9
		c0,1.3,0,1.3-1.3,1.3C11.4,183.9,9.4,183.9,7.4,183.9z"/>
	<path fill="#E3DCD9" d="M7.5,56c-2.1,0-4.3,0-6.4,0c-0.7,0-0.8-0.1-0.8-0.8c0-2.4,0-4.8,0-7.3c0-0.6,0.1-0.7,0.7-0.8
		c1.3,0,1.3,0,1.3,1.3c0,1.5,0,3.1,0,4.6c0,0.7,0,0.7,0.7,0.7c0.9,0,1.9,0,2.8,0c0.4,0,0.5-0.1,0.5-0.5c0-1.5,0-3.1,0-4.6
		c0-0.7,0.1-0.8,0.8-0.8c1.3,0,1.3,0,1.3,1.3c0,1.4,0,2.7,0,4.1c0,0.4,0.1,0.6,0.6,0.6c1,0,2,0,3,0c0.5,0,0.6-0.2,0.6-0.6
		c0-1.7,0-3.4,0-5.1c0-0.9,0.1-1,1-1c1.1,0,1.1,0,1.2,1.1c0,2.3,0,4.5,0,6.8c0,0.8-0.1,0.9-0.8,0.9C11.8,56,9.6,56,7.5,56z"/>
	<path fill="#E3DCD9" d="M14.7,157.5c0.2,0.9-0.4,1.2-1.2,1.6c-3,1.4-6,2.8-9,4.2c-0.1,0.1-0.3,0.2-0.4,0.2c0.1,0.1,0.3,0.2,0.4,0.3
		c2.3,1.1,4.6,2.1,6.9,3.2c0.8,0.4,1.6,0.8,2.4,1.1c0.6,0.2,0.9,0.6,0.8,1.3c0,0.2,0,0.4,0,0.6c0,0.6-0.3,0.7-0.8,0.5
		c-0.9-0.4-1.9-0.9-2.8-1.3c-3.2-1.5-6.4-3-9.6-4.6c-0.4-0.2-0.7-0.3-1.1-0.6c-0.2-0.1-0.4-0.3-0.4-0.5c0-0.2,0.2-0.4,0.4-0.5
		c1.1-0.5,2.1-1.1,3.2-1.6c2.7-1.3,5.5-2.6,8.2-3.9c0.6-0.3,1.3-0.6,2-0.9c0.7-0.3,0.9-0.2,0.9,0.6
		C14.7,157.1,14.7,157.2,14.7,157.5z"/>
	<path fill="#E3DCD9" d="M14.7,81.3c0.2,0.8-0.4,1.2-1.1,1.5c-3.1,1.4-6.2,2.8-9.2,4.3c-0.1,0-0.2,0.1-0.3,0.2
		c0.1,0.1,0.2,0.2,0.3,0.2c3.1,1.5,6.3,2.9,9.4,4.4c0.8,0.4,1.2,1.4,0.8,2.3c-0.1,0.3-0.4,0.3-0.7,0.2c-0.5-0.2-1.1-0.5-1.6-0.7
		c-3.3-1.6-6.6-3.1-9.8-4.7c-0.7-0.3-1.4-0.7-2.1-1.1c-0.2-0.1-0.4-0.4-0.5-0.6c0-0.2,0.2-0.4,0.4-0.5c2-1,3.9-1.9,5.9-2.9
		c2.3-1.1,4.6-2.2,6.9-3.3c0.1,0,0.1-0.1,0.2-0.1C14.6,79.9,14.7,80,14.7,81.3z"/>
	<path fill="#E3DCD9" d="M14.7,113c0.1,0.7-0.2,1.1-0.9,1.4c-2,0.9-4,1.8-6,2.8c-1.1,0.5-2.2,1-3.3,1.6c-0.1,0-0.2,0.1-0.3,0.2
		c0.1,0.1,0.2,0.2,0.3,0.2c2.7,1.3,5.4,2.5,8.1,3.8c0.5,0.2,1,0.5,1.5,0.7c0.4,0.2,0.6,0.5,0.6,1c0,0.3,0,0.6,0,0.9
		c0,0.5-0.3,0.7-0.7,0.5c-0.9-0.4-1.7-0.8-2.6-1.2c-2-0.9-3.9-1.8-5.8-2.8c-1.7-0.8-3.3-1.6-5-2.4c-0.1-0.1-0.2-0.1-0.3-0.2
		c-0.4-0.3-0.4-0.6,0-0.9c0.4-0.3,0.9-0.5,1.4-0.7c2.7-1.3,5.4-2.6,8.1-3.9c1.3-0.6,2.6-1.2,3.9-1.9c0.9-0.4,1-0.3,1,0.6
		C14.7,112.7,14.7,112.8,14.7,113z"/>
	<path fill="#E3DCD9" d="M0.3,105.1c-0.2-0.8,0.3-1.1,1.1-1.5c3-1.4,6.1-2.8,9.1-4.2c0.1-0.1,0.2-0.2,0.3-0.2
		c-0.1-0.1-0.2-0.2-0.4-0.3c-1.5-0.7-2.9-1.4-4.4-2c-1.7-0.8-3.4-1.6-5.1-2.4c-0.4-0.2-0.6-0.5-0.6-1c0-0.3,0-0.6,0-0.9
		c0-0.5,0.2-0.6,0.6-0.4c0.7,0.3,1.4,0.6,2.1,1c2.9,1.4,5.7,2.7,8.6,4.1c0.9,0.4,1.7,0.8,2.6,1.2c0.1,0,0.2,0.1,0.3,0.2
		c0.6,0.4,0.6,0.8-0.1,1.1c-1.7,0.8-3.3,1.6-5,2.4c-2.4,1.1-4.7,2.3-7.1,3.4c-0.4,0.2-0.9,0.4-1.3,0.6c-0.5,0.2-0.7,0.1-0.8-0.5
		C0.3,105.5,0.3,105.4,0.3,105.1z"/>
	<path fill="#E3DCD9" d="M8.5,24c1.8,0,3.7,0,5.5,0c0.7,0,0.8,0.1,0.8,0.8c0,1.4,0,1.4-1.3,1.4c-3.4,0-6.9,0-10.3,0
		c-0.7,0-0.8,0-0.8,0.8c0,1,0,2.1,0,3.1c0,0.6-0.1,0.7-0.7,0.7c-1.3,0-1.3,0-1.3-1.3c0-3.1,0-6.1,0-9.2c0-0.7,0.1-0.8,0.8-0.8
		c1.2,0,1.2,0,1.2,1.2c0,0.9,0,1.8,0,2.6C2.4,24,2.4,24,3,24C4.8,24,6.7,24,8.5,24z"/>
	<path fill="#E3DCD9" d="M7.5,78.5c-2.1,0-4.3,0-6.4,0c-0.8,0-0.9-0.1-0.9-0.9c0-1.3,0-1.3,1.3-1.3c3.4,0,6.9,0,10.3,0
		c0.7,0,0.8,0,0.8-0.8c0-1.7,0-3.4,0-5.1c0-0.8,0.1-0.9,0.9-0.9c1.2,0,1.2,0,1.2,1.2c0,2.3,0,4.6,0,6.9c0,0.8-0.1,0.9-0.9,0.9
		C11.7,78.5,9.6,78.5,7.5,78.5z"/>
	<path fill="#E3DCD9" d="M7.5,67.3c-2.1,0-4.3,0-6.4,0c-0.7,0-0.8-0.1-0.8-0.8c0-1.4-0.1-1.3,1.3-1.3c3.4,0,6.8,0,10.2,0
		c0.9,0,0.9,0,0.9-0.8c0-1.6,0-3.3,0-4.9c0-1,0.1-1.1,1.1-1.1c0.1,0,0.2,0,0.4,0c0.4,0,0.6,0.2,0.6,0.7c0,2.5,0,5.1,0,7.6
		c0,0.5-0.2,0.7-0.7,0.7C11.9,67.3,9.7,67.3,7.5,67.3z"/>
	<path fill="#E3DCD9" d="M7.5,15.3c2.1,0,4.3,0,6.4,0c0.7,0,0.8,0.1,0.8,0.8c0,1.3,0,1.3-1.3,1.3c-4.1,0-8.1,0-12.2,0
		c-0.9,0-0.9-0.1-0.9-0.9c0-1.3-0.1-1.3,1.3-1.2C3.5,15.3,5.5,15.3,7.5,15.3z"/>
</g>
</svg>
